# xmcd
#
# Track frame offsets:
# 150
# 23848
# 41708
# 62557
# 80936
# 101090
# 121996
# 140606
# 158299
# 179475
# 201198
# 221179
# 229139
# 248033
# 265183
# 289279
#
# Disc length: 4175 seconds
#
#
# Revision: 0
# Processed by: cddbd v1.5.2PL0 Copyright (c) Steve Scherf et al.
# Submitted via: FreeRIP 2.96 
#
DISCID=ef104d10
DTITLE=Lloyd - Southside
DYEAR=2004
DGENRE=R&B
TTITLE0=ATL Tales-Ride Wit Me (Feat. Ja Rule)
TTITLE1=Hey Young Girl
TTITLE2=Southside (Feat. Ashanti)
TTITLE3=Feelin You
TTITLE4=Take It Low
TTITLE5=Hustler (Feat. Chink Santana)
TTITLE6=My Life
TTITLE7=Caddillac Love (Feat. Taniya Walter)
TTITLE8=Trance (Feat. Lil Wayne)
TTITLE9=Feels So Right
TTITLE10=This Way
TTITLE11=Miss Lady (Interlude)
TTITLE12=Sweet Dreams
TTITLE13=I'm a G (Feat. 4 Ever)
TTITLE14=Yesterday
TTITLE15=Southside (Remix)(Feat. Ashanti and Scarface)
EXTD=
EXTT0=
EXTT1=
EXTT2=
EXTT3=
EXTT4=
EXTT5=
EXTT6=
EXTT7=
EXTT8=
EXTT9=
EXTT10=
EXTT11=
EXTT12=
EXTT13=
EXTT14=
EXTT15=
PLAYORDER=
